<?xml version="1.0" encoding="UTF-8"?>
<svg xmlns="http://www.w3.org/2000/svg" xmlns:xlink="http://www.w3.org/1999/xlink" width="99pt" height="30pt" viewBox="0 0 99 30" version="1.1">
<g id="surface1">
<path style=" stroke:none;fill-rule:evenodd;fill:rgb(100%,60%,0%);fill-opacity:1;" d="M 61.417969 23.488281 C 55.664062 27.757812 47.324219 30.035156 40.144531 30.035156 C 30.078125 30.035156 21.015625 26.285156 14.160156 20.050781 C 13.621094 19.5625 14.105469 18.894531 14.75 19.277344 C 22.148438 23.609375 31.300781 26.21875 40.75 26.21875 C 47.125 26.21875 54.132812 24.890625 60.582031 22.136719 C 61.554688 21.71875 62.371094 22.777344 61.417969 23.488281 "/>
<path style=" stroke:none;fill-rule:evenodd;fill:rgb(100%,60%,0%);fill-opacity:1;" d="M 63.808594 20.734375 C 63.078125 19.789062 58.949219 20.285156 57.09375 20.507812 C 56.53125 20.578125 56.445312 20.082031 56.953125 19.726562 C 60.242188 17.398438 65.636719 18.070312 66.265625 18.851562 C 66.894531 19.636719 66.101562 25.082031 63.011719 27.679688 C 62.539062 28.078125 62.085938 27.867188 62.296875 27.335938 C 62.992188 25.59375 64.546875 21.683594 63.808594 20.734375 "/>
<path style=" stroke:none;fill-rule:evenodd;fill:rgb(0%,0%,0%);fill-opacity:1;" d="M 57.226562 3.28125 L 57.226562 1.015625 C 57.226562 0.671875 57.484375 0.441406 57.792969 0.441406 L 67.863281 0.441406 C 68.1875 0.441406 68.445312 0.675781 68.445312 1.015625 L 68.445312 2.953125 C 68.441406 3.28125 68.171875 3.707031 67.6875 4.378906 L 62.46875 11.878906 C 64.410156 11.832031 66.457031 12.121094 68.214844 13.121094 C 68.609375 13.34375 68.71875 13.675781 68.746094 14 L 68.746094 16.417969 C 68.746094 16.746094 68.386719 17.132812 68.007812 16.933594 C 64.910156 15.296875 60.792969 15.121094 57.367188 16.949219 C 57.019531 17.140625 56.652344 16.757812 56.652344 16.429688 L 56.652344 14.136719 C 56.652344 13.765625 56.65625 13.136719 57.023438 12.578125 L 63.066406 3.847656 L 57.804688 3.847656 C 57.484375 3.847656 57.226562 3.617188 57.226562 3.28125 "/>
<path style=" stroke:none;fill-rule:evenodd;fill:rgb(0%,0%,0%);fill-opacity:1;" d="M 20.488281 17.410156 L 17.421875 17.410156 C 17.128906 17.386719 16.898438 17.167969 16.875 16.886719 L 16.875 1.054688 C 16.875 0.738281 17.136719 0.484375 17.464844 0.484375 L 20.324219 0.484375 C 20.621094 0.5 20.859375 0.730469 20.878906 1.015625 L 20.878906 3.085938 L 20.933594 3.085938 C 21.679688 1.085938 23.082031 0.152344 24.96875 0.152344 C 26.886719 0.152344 28.085938 1.085938 28.945312 3.085938 C 29.6875 1.085938 31.371094 0.152344 33.179688 0.152344 C 34.460938 0.152344 35.867188 0.683594 36.726562 1.882812 C 37.695312 3.214844 37.496094 5.148438 37.496094 6.847656 L 37.492188 16.835938 C 37.492188 17.15625 37.230469 17.410156 36.902344 17.410156 L 33.839844 17.410156 C 33.535156 17.386719 33.289062 17.140625 33.289062 16.835938 L 33.289062 8.445312 C 33.289062 7.777344 33.351562 6.113281 33.203125 5.480469 C 32.976562 4.417969 32.289062 4.117188 31.402344 4.117188 C 30.660156 4.117188 29.886719 4.617188 29.570312 5.414062 C 29.257812 6.210938 29.285156 7.550781 29.285156 8.445312 L 29.285156 16.835938 C 29.285156 17.15625 29.023438 17.410156 28.695312 17.410156 L 25.636719 17.410156 C 25.328125 17.386719 25.085938 17.140625 25.085938 16.835938 L 25.082031 8.445312 C 25.082031 6.679688 25.371094 4.082031 23.191406 4.082031 C 20.992188 4.082031 21.078125 6.617188 21.078125 8.445312 L 21.078125 16.835938 C 21.078125 17.15625 20.8125 17.410156 20.488281 17.410156 "/>
<path style=" stroke:none;fill-rule:evenodd;fill:rgb(0%,0%,0%);fill-opacity:1;" d="M 77.117188 0.152344 C 81.664062 0.152344 84.125 4.082031 84.125 9.082031 C 84.125 13.910156 81.40625 17.738281 77.117188 17.738281 C 72.652344 17.738281 70.222656 13.808594 70.222656 8.910156 C 70.222656 3.984375 72.683594 0.152344 77.117188 0.152344 M 77.144531 3.382812 C 74.882812 3.382812 74.742188 6.480469 74.742188 8.414062 C 74.742188 10.347656 74.710938 14.476562 77.117188 14.476562 C 79.492188 14.476562 79.601562 11.144531 79.601562 9.113281 C 79.601562 7.777344 79.546875 6.183594 79.148438 4.914062 C 78.800781 3.8125 78.117188 3.382812 77.144531 3.382812 "/>
<path style=" stroke:none;fill-rule:evenodd;fill:rgb(0%,0%,0%);fill-opacity:1;" d="M 90.019531 17.410156 L 86.96875 17.410156 C 86.664062 17.386719 86.417969 17.140625 86.417969 16.835938 L 86.414062 1.003906 C 86.4375 0.710938 86.691406 0.484375 87.003906 0.484375 L 89.84375 0.484375 C 90.109375 0.5 90.328125 0.679688 90.390625 0.929688 L 90.390625 3.347656 L 90.445312 3.347656 C 91.304688 1.183594 92.503906 0.152344 94.621094 0.152344 C 95.996094 0.152344 97.335938 0.652344 98.199219 2.015625 C 99 3.285156 99 5.414062 99 6.945312 L 99 16.910156 C 98.964844 17.1875 98.710938 17.410156 98.410156 17.410156 L 95.335938 17.410156 C 95.058594 17.386719 94.824219 17.179688 94.792969 16.910156 L 94.792969 8.3125 C 94.792969 6.582031 94.992188 4.046875 92.875 4.046875 C 92.128906 4.046875 91.445312 4.550781 91.105469 5.316406 C 90.675781 6.28125 90.617188 7.246094 90.617188 8.3125 L 90.617188 16.835938 C 90.613281 17.15625 90.347656 17.410156 90.019531 17.410156 "/>
<path style=" stroke:none;fill-rule:evenodd;fill:rgb(0%,0%,0%);fill-opacity:1;" d="M 49.195312 9.847656 C 49.195312 11.050781 49.226562 12.050781 48.621094 13.121094 C 48.136719 13.988281 47.359375 14.519531 46.503906 14.519531 C 45.328125 14.519531 44.636719 13.617188 44.636719 12.285156 C 44.636719 9.65625 46.976562 9.179688 49.195312 9.179688 L 49.195312 9.847656 M 52.285156 17.367188 C 52.082031 17.550781 51.789062 17.5625 51.5625 17.441406 C 50.546875 16.589844 50.359375 16.195312 49.804688 15.382812 C 48.125 17.109375 46.929688 17.628906 44.753906 17.628906 C 42.171875 17.628906 40.167969 16.027344 40.167969 12.820312 C 40.167969 10.316406 41.511719 8.613281 43.433594 7.777344 C 45.097656 7.042969 47.421875 6.910156 49.195312 6.707031 L 49.195312 6.308594 C 49.195312 5.574219 49.253906 4.707031 48.820312 4.074219 C 48.449219 3.503906 47.734375 3.269531 47.101562 3.269531 C 45.933594 3.269531 44.894531 3.875 44.640625 5.125 C 44.589844 5.402344 44.386719 5.675781 44.105469 5.6875 L 41.136719 5.367188 C 40.886719 5.308594 40.609375 5.105469 40.679688 4.71875 C 41.363281 1.09375 44.621094 0 47.53125 0 C 49.023438 0 50.972656 0.398438 52.148438 1.535156 C 53.640625 2.9375 53.496094 4.808594 53.496094 6.84375 L 53.496094 11.648438 C 53.496094 13.09375 54.089844 13.726562 54.652344 14.507812 C 54.847656 14.785156 54.890625 15.121094 54.640625 15.328125 C 54.015625 15.851562 52.902344 16.828125 52.289062 17.375 L 52.285156 17.367188 "/>
<path style=" stroke:none;fill-rule:evenodd;fill:rgb(0%,0%,0%);fill-opacity:1;" d="M 9.027344 9.847656 C 9.027344 11.050781 9.058594 12.050781 8.453125 13.121094 C 7.96875 13.988281 7.195312 14.519531 6.335938 14.519531 C 5.160156 14.519531 4.472656 13.617188 4.472656 12.285156 C 4.472656 9.65625 6.8125 9.179688 9.027344 9.179688 L 9.027344 9.847656 M 12.117188 17.367188 C 11.914062 17.550781 11.621094 17.5625 11.394531 17.441406 C 10.378906 16.589844 10.195312 16.195312 9.636719 15.382812 C 7.957031 17.109375 6.765625 17.628906 4.585938 17.628906 C 2.007812 17.628906 0 16.027344 0 12.820312 C 0 10.316406 1.347656 8.613281 3.265625 7.777344 C 4.929688 7.042969 7.253906 6.910156 9.027344 6.707031 L 9.027344 6.308594 C 9.027344 5.574219 9.085938 4.707031 8.65625 4.074219 C 8.28125 3.503906 7.566406 3.269531 6.9375 3.269531 C 5.769531 3.269531 4.726562 3.875 4.472656 5.125 C 4.421875 5.402344 4.21875 5.675781 3.941406 5.6875 L 0.96875 5.367188 C 0.71875 5.308594 0.445312 5.105469 0.511719 4.71875 C 1.199219 1.09375 4.453125 0 7.363281 0 C 8.855469 0 10.804688 0.398438 11.980469 1.535156 C 13.472656 2.9375 13.328125 4.808594 13.328125 6.84375 L 13.328125 11.648438 C 13.328125 13.09375 13.921875 13.726562 14.484375 14.507812 C 14.683594 14.785156 14.726562 15.121094 14.476562 15.328125 C 13.851562 15.851562 12.738281 16.828125 12.125 17.375 L 12.117188 17.367188 "/>
</g>
</svg>
